# 3ds Max Wavefront OBJ Exporter v0.97b - (c)2007 guruware
# 创建的文件:09.01.2020 12:18:51

mtllib 地面.mtl

#
# object Box002
#

v  -414.5282 -616.0151 0.5506
v  587.8085 -616.0152 0.5340
v  587.8085 363.9572 0.5340
v  -414.5282 363.9573 0.5506
# 4 vertices

vn 0.0030 -0.0000 1.0000
# 1 vertex normals

vt 0.0000 0.9983 0.0000
vt 0.0000 1.0000 0.0000
vt 1.0000 1.0000 0.0000
vt 1.0000 0.9983 0.0000
# 4 texture coords

o Box002
g Box002
usemtl wire_177027088
s off
f 1/1/1 2/2/1 3/3/1 4/4/1 
# 1 polygons

