# 3ds Max Wavefront OBJ Exporter v0.97b - (c)2007 guruware
# 创建的文件:09.01.2020 12:20:20

mtllib 镜面.mtl

#
# object jingzi001
#

v  454.6972 -608.2484 29.8467
v  167.7121 -608.2484 29.8467
v  167.7121 -608.2484 209.9686
v  454.6972 -608.2484 209.9686
# 4 vertices

vn 0.0000 1.0000 0.0000
# 1 vertex normals

vt 0.0016 0.0028 0.0000
vt 0.9984 0.0028 0.0000
vt 0.9984 0.9972 0.0000
vt 0.0016 0.9972 0.0000
# 4 texture coords

o jingzi001
g jingzi001
usemtl wire_027177148
s 1
f 1/1/1 2/2/1 3/3/1 4/4/1 
# 1 polygons

