# 3ds Max Wavefront OBJ Exporter v0.97b - (c)2007 guruware
# 创建的文件:09.01.2020 12:19:55

mtllib 墙2.mtl

#
# object 对象006
#

v  587.8086 -616.0151 348.8807
v  587.8086 -616.0151 0.5423
v  -414.5282 -616.0151 0.5423
v  -414.5282 -616.0151 348.8807
# 4 vertices

vn 0.0000 1.0000 0.0000
# 1 vertex normals

vt 0.0000 0.0000 0.0000
vt 0.0000 0.9983 0.0000
vt 1.0000 0.9983 0.0000
vt 1.0000 0.0000 0.0000
# 4 texture coords

o 对象006
g 对象006
usemtl wire_177027088
s 32
f 1/1/1 2/2/1 3/3/1 4/4/1 
# 1 polygons

